<?xml version="1.0" standalone="no"?>
<!DOCTYPE svg PUBLIC "-//W3C//DTD SVG 20010904//EN"
 "http://www.w3.org/TR/2001/REC-SVG-20010904/DTD/svg10.dtd">
<svg version="1.0" xmlns="http://www.w3.org/2000/svg"
 width="538.000000pt" height="538.000000pt" viewBox="0 0 538.000000 538.000000"
 preserveAspectRatio="xMidYMid meet">
<metadata>
Created by potrace 1.16, written by Peter Selinger 2001-2019
</metadata>
<g transform="translate(0.000000,538.000000) scale(0.100000,-0.100000)"
fill="#000000" stroke="none">
<path d="M920 5180 c-69 -10 -132 -43 -166 -86 -33 -42 -68 -104 -59 -104 4 0
0 -7 -8 -15 -11 -11 -14 -32 -12 -83 3 -59 9 -77 39 -126 40 -62 89 -116 106
-116 6 0 24 -7 41 -15 16 -9 51 -16 77 -17 52 0 87 -15 117 -47 25 -28 27 -39
32 -141 2 -47 9 -89 14 -95 11 -11 12 -38 2 -32 -11 7 -3 -175 7 -188 5 -6 9
-69 9 -141 1 -147 18 -674 26 -779 11 -133 46 -327 70 -380 7 -16 19 -45 25
-62 7 -18 16 -33 21 -33 5 0 9 -5 9 -11 0 -18 101 -221 107 -215 3 3 20 -16
38 -42 75 -113 104 -151 170 -218 39 -39 92 -86 120 -105 27 -19 58 -42 69
-51 11 -10 24 -18 30 -18 6 0 20 -11 31 -24 22 -25 180 -110 228 -121 15 -4
27 -11 27 -15 0 -5 10 -12 23 -15 12 -4 36 -13 52 -20 17 -7 57 -18 90 -25 95
-20 142 -39 153 -65 16 -36 15 -1015 -1 -1019 -7 -2 -43 -11 -81 -20 -39 -9
-77 -23 -86 -31 -9 -8 -19 -13 -22 -10 -7 7 -62 -78 -83 -127 -18 -45 -19
-147 -2 -203 14 -48 61 -112 88 -120 10 -4 19 -12 19 -20 0 -7 10 -16 23 -20
12 -4 29 -10 37 -13 8 -3 174 -7 369 -9 396 -4 444 1 488 48 15 16 32 29 38
29 9 0 58 65 60 80 1 3 7 31 14 62 23 108 -16 233 -93 292 -32 24 -127 56
-168 56 -37 0 -39 26 -36 530 l3 490 27 25 c15 14 40 27 55 30 58 10 119 24
158 36 22 7 43 13 47 13 4 1 16 9 28 18 11 10 32 21 47 24 15 4 50 21 78 37
27 16 56 30 63 31 7 1 18 8 24 14 7 7 18 12 25 12 7 0 19 11 28 23 8 13 27 30
43 38 31 16 105 70 110 81 2 5 10 8 18 8 8 0 14 7 14 15 0 8 6 15 14 15 17 0
116 107 116 125 0 8 8 16 18 20 19 6 67 70 95 125 9 19 26 42 37 51 10 9 16
19 13 23 -4 3 -1 6 5 6 11 0 71 119 105 210 11 30 24 58 29 61 13 8 47 136 48
176 0 17 5 44 10 59 6 15 13 50 15 78 6 72 24 544 29 771 2 105 7 264 11 355
4 91 8 190 9 220 2 46 7 62 31 89 41 45 75 61 132 61 119 0 238 116 250 244
11 123 -37 229 -130 285 -38 23 -54 26 -152 28 -106 2 -188 -10 -230 -33 -11
-6 -32 -14 -47 -18 -15 -3 -33 -12 -40 -19 -21 -20 -72 -52 -80 -49 -5 1 -8
-2 -8 -8 0 -5 -7 -10 -14 -10 -8 0 -27 -17 -42 -37 -15 -21 -44 -54 -65 -73
-39 -37 -98 -146 -119 -220 -6 -25 -19 -61 -27 -81 -10 -24 -12 -52 -8 -88 3
-29 2 -58 -3 -65 -10 -11 -25 -348 -23 -491 1 -44 -3 -156 -9 -250 -6 -93 -12
-249 -14 -345 -2 -96 -7 -188 -11 -205 -7 -32 -11 -50 -19 -103 -3 -18 -9 -38
-13 -45 -4 -6 -8 -16 -8 -22 -1 -19 -27 -85 -33 -85 -4 0 -13 -15 -21 -32 -8
-18 -17 -35 -20 -38 -6 -5 -24 -36 -63 -110 -13 -23 -31 -46 -41 -52 -23 -12
-92 -88 -92 -101 0 -5 -15 -18 -33 -27 -19 -10 -41 -24 -50 -32 -9 -7 -37 -24
-62 -37 -25 -13 -54 -31 -65 -41 -46 -38 -107 -50 -147 -29 -49 26 -48 5 -48
1117 0 815 3 1042 13 1054 6 9 32 18 57 21 65 8 72 11 105 32 75 50 108 97
125 179 14 69 6 147 -20 196 -10 19 -23 45 -29 57 -8 18 -80 73 -101 79 -3 0
-14 5 -25 10 -11 5 -191 9 -400 9 -373 0 -381 -1 -425 -23 -70 -34 -80 -45
-125 -137 -39 -79 -29 -232 18 -292 60 -76 125 -113 199 -113 20 0 40 -6 46
-13 7 -8 11 -344 12 -1065 1 -1121 2 -1098 -45 -1116 -32 -12 -80 -6 -112 14
-18 11 -33 16 -33 12 0 -4 -5 1 -11 11 -6 9 -33 30 -61 45 -87 47 -152 91
-144 99 2 3 -9 17 -26 31 -68 60 -121 125 -123 153 0 11 -50 79 -57 79 -5 0
-8 8 -8 18 0 10 -3 22 -7 26 -5 4 -8 11 -8 14 -1 4 -8 21 -17 37 -49 94 -77
301 -78 575 0 102 -2 194 -4 205 -3 11 -5 79 -7 150 -1 85 -4 118 -9 95 -4
-20 -8 42 -9 150 -2 323 -18 506 -49 583 -7 16 -12 31 -12 33 0 19 -51 112
-64 117 -9 4 -16 12 -16 20 0 7 -13 26 -30 42 -16 16 -28 30 -26 32 7 8 -51
61 -85 79 -19 9 -50 30 -69 45 -19 16 -40 29 -48 29 -7 0 -29 8 -50 19 -43 21
-101 34 -212 45 -19 1 -55 0 -80 -4z m113 -169 c23 -6 59 -13 80 -16 21 -3 47
-15 57 -25 11 -11 41 -31 67 -44 51 -27 133 -96 133 -112 0 -5 9 -15 20 -22
11 -7 20 -19 20 -26 0 -8 4 -16 8 -18 14 -5 48 -91 60 -148 15 -74 32 -534 32
-854 -1 -173 3 -262 10 -271 7 -9 9 -48 6 -114 -4 -63 -2 -102 5 -106 5 -4 9
-14 8 -23 -6 -43 36 -239 74 -342 17 -47 46 -101 65 -119 8 -8 21 -31 29 -50
27 -64 112 -165 218 -262 49 -43 146 -109 161 -109 6 0 23 -11 37 -25 14 -14
53 -37 88 -50 82 -33 157 -33 224 -1 69 32 88 52 116 116 l24 55 0 1100 c0
1060 -1 1102 -19 1145 -22 51 -75 85 -148 96 -71 10 -98 24 -119 66 -16 32
-18 45 -9 77 10 38 24 54 67 79 17 9 107 12 349 12 370 0 378 -1 409 -70 15
-34 16 -45 5 -84 -14 -51 -28 -60 -124 -82 -88 -20 -118 -35 -135 -71 -7 -15
-17 -36 -22 -45 -5 -10 -9 -505 -9 -1126 l0 -1108 25 -50 c30 -60 51 -84 95
-107 45 -24 146 -33 196 -17 64 20 124 50 124 60 0 6 7 10 15 10 8 0 15 3 15
8 0 4 22 17 49 30 27 12 71 44 99 72 28 27 55 50 60 50 11 0 81 82 98 115 6
11 15 19 21 18 9 -2 75 103 122 195 8 15 17 29 22 32 4 3 17 32 29 65 20 54
27 83 44 165 3 14 8 38 12 54 11 51 13 94 23 556 6 250 15 491 21 535 12 102
17 232 7 241 -4 4 -7 23 -7 42 0 20 3 32 7 28 4 -4 13 23 20 60 19 102 115
274 153 274 5 0 15 6 22 13 20 18 69 50 101 64 15 7 27 16 27 21 0 13 18 19
104 37 89 19 106 19 155 -1 44 -17 65 -55 64 -112 -2 -74 -29 -94 -147 -112
-97 -15 -162 -47 -182 -89 -9 -19 -28 -45 -42 -58 -14 -12 -19 -23 -13 -23 9
0 8 -4 -2 -14 -15 -15 -27 -160 -33 -386 -19 -824 -25 -993 -34 -1010 -5 -10
-7 -20 -3 -23 11 -11 -34 -223 -52 -247 -22 -28 -29 -44 -17 -36 7 4 12 3 12
-3 0 -5 -3 -11 -7 -13 -8 -3 -30 -47 -50 -98 -21 -54 -78 -168 -82 -164 -2 2
-17 -17 -32 -44 -15 -26 -38 -59 -53 -75 -14 -15 -25 -30 -25 -33 1 -10 -156
-174 -171 -179 -8 -3 -29 -18 -46 -33 -78 -67 -86 -73 -224 -145 -36 -18 -78
-37 -93 -41 -15 -3 -25 -11 -22 -16 3 -6 -2 -10 -12 -10 -11 0 -23 -4 -29 -9
-11 -10 -93 -36 -161 -50 -98 -20 -133 -48 -180 -140 l-23 -44 0 -545 c0 -530
1 -545 20 -572 11 -16 19 -34 18 -41 -4 -18 82 -58 125 -59 120 -1 175 -106
102 -195 l-25 -30 -354 -3 c-346 -3 -356 -2 -376 18 -11 11 -20 17 -20 13 -1
-12 -39 70 -40 83 0 21 31 74 57 94 16 12 41 20 65 20 21 0 55 7 76 17 20 9
40 16 43 15 4 -1 19 22 35 51 l29 52 2 541 2 540 -25 50 c-27 52 -72 98 -114
116 -14 5 -56 18 -95 29 -138 36 -155 42 -155 52 0 6 -3 8 -6 4 -4 -3 -13 0
-21 8 -7 8 -29 19 -48 24 -20 5 -57 22 -83 38 -26 16 -62 35 -79 42 -18 7 -30
18 -26 24 3 6 1 7 -5 3 -7 -4 -24 5 -40 22 -15 16 -42 39 -60 52 -49 33 -205
190 -222 223 -8 16 -28 41 -45 56 -17 15 -37 42 -45 61 -7 19 -23 51 -35 70
-11 19 -31 62 -44 95 -13 33 -29 65 -35 70 -7 6 -22 44 -35 85 -29 96 -29 97
-35 148 -3 23 -7 46 -10 50 -11 18 -19 175 -31 587 -2 83 -7 240 -10 350 -10
371 -16 490 -26 493 -5 2 -9 13 -10 25 0 12 -9 36 -20 52 -10 17 -25 44 -33
60 -21 44 -101 84 -202 100 -48 8 -91 20 -100 30 -33 32 -38 128 -10 164 14
18 65 40 94 41 13 0 42 -4 65 -9z"/>
</g>
</svg>
